# xmcd
#
# Track frame offsets:
#	7235
#	22220
#	35500
#	44930
#	59172
#	75472
#	90372
#	99442
#	110782
#	127795
#	145167
#	158040
#	168735
#	183466
#	198432
#	212035
#	227630
#	249875
#	264817
#
# Disc length: 3992 seconds
#
# Revision: 1
# Processed by: cddbd v1.5.1PL2 Copyright (c) Steve Scherf et al.
# Submitted via: audiograbber 1.83.01
#
DISCID=150f3813
DTITLE=Tombstone Brawlers - Scary Movies
DYEAR=2003
DGENRE=Rock and Roll
TTITLE0=Demonatrix
TTITLE1=Wolfen
TTITLE2=The Valley Of The Dead
TTITLE3=Road Grit Shuffle
TTITLE4=Scary Movies
TTITLE5=Die You Zombie Bastards
TTITLE6=The Lake
TTITLE7=Manhunter
TTITLE8=Inside Your Skin
TTITLE9=The River
TTITLE10=Killing In My Sleep
TTITLE11=I'm So Glad I'm Dead
TTITLE12=Fat Bottom Girls
TTITLE13=Kong Is King
TTITLE14=Die You Zombie Bastards
TTITLE15=Killing In My Sleep
TTITLE16=Hollywood Babylon
TTITLE17=Dirty Old Bastard
TTITLE18=Cannibal Jamboree
EXTD=Lick Ass Psychobilly from the U.S.A.
EXTT0=
EXTT1=
EXTT2=
EXTT3=
EXTT4=
EXTT5=
EXTT6=
EXTT7=
EXTT8=
EXTT9=
EXTT10=
EXTT11=
EXTT12=
EXTT13=
EXTT14=
EXTT15=
EXTT16=
EXTT17=
EXTT18=
PLAYORDER=
